<svg xmlns="http://www.w3.org/2000/svg" width="700pt" height="700pt" version="1.1" viewBox="0 0 700 700"><path d="m323.75 17.5c-14.391 0-26.25 11.859-26.25 26.25s11.859 26.25 26.25 26.25v28.316c-19.137 2.7695-37.77 8.5391-54.996 17.02-10.477 5.1484-2.75 20.855 7.7227 15.707 17.488-8.6133 36.461-14.051 56.039-16.117 5.4219-0.41016 9.1055-4.1016 8.7344-10.27v-43.406c0-4.832-3.918-8.75-8.75-8.75h-8.75c-5 0-8.75-3.75-8.75-8.75s3.75-8.75 8.75-8.75h52.5c5 0 8.75 3.75 8.75 8.75s-3.75 8.75-8.75 8.75h-8.75c-4.832 0-8.75 3.918-8.75 8.75v43.238c-0.18359 6.6289 3.6133 9.6484 8.4766 10.238 32.242 3.4023 62.82 16.078 87.91 36.625 3.4766 2.8438 8.543 2.5938 11.723-0.58203l31.633-31.633c3.4141-3.418 3.4141-8.957 0-12.371l-6.1875-6.1875c-3.5352-3.5352-3.5352-8.8359 0-12.375 3.5352-3.5352 8.8359-3.5352 12.371 0l37.121 37.117c3.5352 3.5352 3.5352 8.8359 0 12.375-3.5352 3.5352-8.8359 3.5352-12.375 0l-6.1875-6.1875c-3.418-3.4141-8.957-3.4141-12.371 0l-31.633 31.633c-3.1797 3.1758-3.4375 8.2422-0.59766 11.723 20.617 25.277 33.355 56.051 36.605 88.508 0.44922 4.4688 4.207 7.875 8.6992 7.8789h44.809c4.832 0 8.75-3.918 8.75-8.75v-8.75c0-5 3.75-8.75 8.75-8.75s8.75 3.75 8.75 8.75v52.5c0 5-3.75 8.75-8.75 8.75s-8.75-3.75-8.75-8.75v-8.75c0-4.832-3.918-8.75-8.75-8.75h-44.621c-4.4844 0.003906-8.2422 3.3984-8.6992 7.8594-3.3008 32.477-16.094 63.27-36.777 88.527-2.8438 3.4766-2.5938 8.543 0.58203 11.723l31.633 31.633c3.418 3.4141 8.957 3.4141 12.375 0l6.1875-6.1875c3.5352-3.5352 8.8359-3.5352 12.375 0 3.5352 3.5352 3.5352 8.8359 0 12.375l-37.121 37.117c-3.5352 3.5352-8.8359 3.5352-12.371 0s-3.5352-8.8359 0-12.375l6.1875-6.1875c3.4141-3.418 3.4141-8.957 0-12.375l-31.633-31.633c-8.2461-8.5898-20.965 4.125-12.371 12.371l25.445 25.445c-10.176 10.176-10.176 26.945 0 37.117 10.176 10.176 26.945 10.176 37.117 0l37.117-37.117c10.176-10.176 10.176-26.945 0-37.121s-26.945-10.176-37.117 0l-19.977-20.012c18.262-24.449 30.395-53.48 34.828-83.672h28.098c0 14.391 11.859 26.25 26.25 26.25s26.25-11.859 26.25-26.25v-52.5c0-14.391-11.859-26.25-26.25-26.25s-26.25 11.859-26.25 26.25h-28.336c-4.3867-30.168-16.355-59.215-34.555-83.672l19.945-20.012c10.176 10.176 26.945 10.176 37.117 0 10.176-10.176 10.176-26.945 0-37.117l-37.117-37.121c-10.176-10.176-26.945-10.176-37.117 0-10.176 10.176-10.176 26.945 0 37.121l-19.977 19.945c-24.449-18.262-53.516-30.293-83.707-34.727v-28.164c14.391 0 26.25-11.859 26.25-26.25 0-14.391-11.859-26.25-26.25-26.25zm-122.24 50.688c-6.7344 0-13.473 2.5547-18.559 7.6406l-37.117 37.121c-10.176 10.176-10.176 26.945 0 37.117 10.176 10.176 26.945 10.176 37.117 0l19.945 20.012c-18.262 24.449-30.309 53.48-34.742 83.672h-28.152c0-14.391-11.859-26.25-26.25-26.25s-26.25 11.859-26.25 26.25v52.5c0 14.391 11.859 26.25 26.25 26.25s26.25-11.859 26.25-26.25h28.352c4.25 30.406 16.41 59.211 34.605 83.672l-20.012 20.012c-10.176-10.176-26.945-10.176-37.117 0-10.176 10.176-10.176 26.945 0 37.117l37.117 37.117c10.176 10.176 26.945 10.176 37.121 0 10.176-10.176 10.176-26.945 0-37.117l20.047-19.977c24.312 18.57 53.445 30.395 83.637 34.828v28.094c-14.391 0-26.25 11.859-26.25 26.25s11.859 26.25 26.25 26.25h52.5c14.391 0 26.25-11.859 26.25-26.25s-11.859-26.25-26.25-26.25v-28.336c19.293-2.793 38.078-8.6289 55.422-17.227 10.906-5.0273 2.8242-21.316-7.7773-15.672-17.852 8.8477-37.242 14.469-57.27 16.473-4.4688 0.44531-7.875 4.207-7.8789 8.6992v44.809c0 4.832 3.918 8.75 8.75 8.75h8.75c5 0 8.75 3.75 8.75 8.75s-3.75 8.75-8.75 8.75h-52.5c-5 0-8.75-3.75-8.75-8.75s3.75-8.75 8.75-8.75h8.75c4.832 0 8.75-3.918 8.75-8.75v-44.621c-0.003906-4.4844-3.3984-8.2422-7.8633-8.6992-32.477-3.3047-63.27-16.094-88.523-36.777-3.4766-2.8438-8.543-2.5938-11.723 0.58203l-31.633 31.633c-3.4141 3.418-3.4141 8.957 0 12.375l6.1875 6.1875c3.5352 3.5352 3.5352 8.8359 0 12.371-3.5352 3.5352-8.8359 3.5352-12.371 0l-37.121-37.117c-3.5352-3.5352-3.5352-8.8359 0-12.375 3.5352-3.5352 8.8359-3.5352 12.375 0l6.1875 6.1875c3.418 3.4141 8.957 3.4141 12.371 0l31.633-31.633c3.1797-3.1758 3.4375-8.2422 0.59766-11.723-20.617-25.277-33.355-56.051-36.605-88.508-0.44922-4.4688-4.207-7.875-8.6992-7.8789h-44.809c-4.832 0-8.75 3.918-8.75 8.75v8.75c0 5-3.75 8.75-8.75 8.75s-8.75-3.75-8.75-8.75v-52.5c0-5 3.75-8.75 8.75-8.75s8.75 3.75 8.75 8.75v8.75c0 4.832 3.918 8.75 8.75 8.75h44.621c4.4844-0.003906 8.2422-3.3984 8.6992-7.8594 3.3008-32.477 16.094-63.27 36.777-88.527 2.8438-3.4766 2.5938-8.543-0.58203-11.723l-31.633-31.633c-3.418-3.4141-8.957-3.4141-12.371 0l-6.1875 6.1875c-3.5352 3.5352-8.8359 3.5352-12.375 0-3.5352-3.5352-3.5352-8.8359 0-12.375l37.121-37.117c3.5352-3.5352 8.8359-3.5352 12.371 0 3.5352 3.5352 3.5352 8.8359 0 12.375l-6.1875 6.1875c-3.4141 3.418-3.4141 8.957 0 12.371l31.633 31.633c8.2461 8.5898 20.961-4.125 12.375-12.371l-25.445-25.445c10.176-10.176 10.176-26.945 0-37.121-5.0859-5.0859-11.824-7.6406-18.559-7.6406zm148.49 80.562c-4.832 0-8.75 3.918-8.75 8.75s3.918 8.75 8.75 8.75 8.75-3.918 8.75-8.75-3.918-8.75-8.75-8.75zm-61.234 17.516c-28.891 0-52.5 23.609-52.5 52.5s23.609 52.449 52.5 52.449 52.449-23.559 52.449-52.449-23.559-52.5-52.449-52.5zm0 17.5c19.434 0 35.016 15.566 35.016 35s-15.582 35.016-35.016 35.016-35-15.582-35-35.016 15.566-35 35-35zm122.46 0c-19.227 0-35 15.773-35 35s15.773 35.016 35 35.016c19.227 0 35.016-15.789 35.016-35.016s-15.789-35-35.016-35zm0 17.5c9.7695 0 17.5 7.7305 17.5 17.5s-7.7305 17.516-17.5 17.516-17.5-7.75-17.5-17.516c0-9.7695 7.7305-17.5 17.5-17.5zm-183.73 69.984h0.003906c-2.3203 0-4.5469 0.92188-6.1875 2.5625s-2.5625 3.8672-2.5625 6.1875c0 4.832 3.918 8.75 8.75 8.75s8.75-3.918 8.75-8.75c0-2.3203-0.92188-4.5469-2.5625-6.1875s-3.8672-2.5625-6.1875-2.5625zm122.5 0h0.003906c-2.3203 0-4.5469 0.92188-6.1875 2.5625s-2.5625 3.8672-2.5625 6.1875c0 4.832 3.918 8.75 8.75 8.75s8.75-3.918 8.75-8.75c0-2.3203-0.92188-4.5469-2.5625-6.1875s-3.8672-2.5625-6.1875-2.5625zm122.5 0h0.003906c-2.3203 0-4.5469 0.92188-6.1875 2.5625s-2.5625 3.8672-2.5625 6.1875c0 4.832 3.918 8.75 8.75 8.75s8.75-3.918 8.75-8.75c0-2.3203-0.92188-4.5469-2.5625-6.1875s-3.8672-2.5625-6.1875-2.5625zm-61.266 17.465c-28.891 0-52.516 23.625-52.516 52.516s23.625 52.516 52.516 52.516 52.516-23.625 52.516-52.516-23.625-52.516-52.516-52.516zm-122.46 17.516c-19.227 0-35 15.773-35 35 0 19.227 15.773 35.016 35 35.016s35.016-15.789 35.016-35.016c0-19.227-15.789-35-35.016-35zm122.46 0c19.434 0 35.016 15.566 35.016 35 0 19.434-15.582 35.016-35.016 35.016-19.434 0-35-15.582-35-35.016 0-19.434 15.566-35 35-35zm-122.46 17.5c9.7695 0 17.516 7.7305 17.516 17.5s-7.75 17.5-17.516 17.5c-9.7695 0-17.5-7.7305-17.5-17.5s7.7305-17.5 17.5-17.5zm61.234 70.016v0.003906c-4.832 0-8.75 3.918-8.75 8.75 0 2.3203 0.92188 4.5469 2.5625 6.1875s3.8672 2.5625 6.1875 2.5625 4.5469-0.92188 6.1875-2.5625 2.5625-3.8672 2.5625-6.1875c0-4.832-3.918-8.75-8.75-8.75z"/></svg>